# xmcd
#
# Track frame offsets: 
#        150
#        13384
#        28595
#        41473
#        48725
#        65241
#        98472
#        106877
#        121904
#        128499
#        155460
#        164799
#
# Disc length: 2551 seconds
#
# Revision: 0
# Processed by: cddbd v1.5.2PL0 Copyright (c) Steve Scherf et al.
# Submitted via: ExactAudioCopy v0.95b4
#
DISCID=9f09f50c
DTITLE=Harry Taussig - Fate Is Only Once
DYEAR=1965
DGENRE=Bluegrass
TTITLE0=Baby Let Me Lay It In You
TTITLE1=Blues For Zone VII
TTITLE2=Dark Town Strutter's Ball
TTITLE3=R R Bill and Co.
TTITLE4=Rev's Rag
TTITLE5=Sugar Babe, Your Papa Cares For You
TTITLE6=National Ragtime Stomp
TTITLE7=Rondo To Death
TTITLE8=Monte's Blues
TTITLE9=Dorian Sonata
TTITLE10=St Louis Tickle
TTITLE11=Fate Is Only One
EXTD=
EXTT0=
EXTT1=
EXTT2=
EXTT3=
EXTT4=
EXTT5=
EXTT6=
EXTT7=
EXTT8=
EXTT9=
EXTT10=
EXTT11=
PLAYORDER=
